ply
format ascii 1.0
element vertex 39
property float x
property float y
property float z
property uchar red
property uchar green
property uchar blue
end_header
0.229520 0.691475 2.198475 178 188 200
0.229520 0.691475 2.198475 178 188 200
0.280092 0.111259 2.078702 182 124 76
0.785508 -1.678449 3.866471 97 85 61
0.785508 -1.678449 3.866471 97 85 61
0.812086 -1.662848 3.888847 135 128 110
0.825524 -1.680885 3.903595 40 31 14
0.486737 0.645520 1.946229 224 186 147
1.498507 -1.901513 5.448700 105 110 90
0.919670 0.101347 3.260531 66 20 0
0.919670 0.101347 3.260531 66 20 0
0.767218 0.119425 2.680817 141 103 66
0.924105 -0.345308 3.204080 137 106 78
1.232418 0.221200 3.808854 154 124 86
1.236203 -1.650918 3.488637 112 109 90
1.377036 -1.090633 3.758349 131 153 141
1.032402 0.683144 2.677404 189 160 120
1.364238 -1.654696 3.435630 99 94 74
1.280266 0.811389 3.218692 29 8 0
1.280266 0.811389 3.218692 29 8 0
1.280649 0.817081 3.169083 187 146 92
1.316323 0.818384 3.244854 29 14 0
1.502666 0.861016 3.666912 190 143 89
1.327316 0.810399 3.233327 218 210 189
1.336589 0.828101 3.238841 80 42 6
1.538314 -0.891817 3.611837 182 203 194
1.551917 -0.485029 3.616951 100 106 92
1.453879 -1.641556 3.368544 102 95 76
1.453879 -1.641556 3.368544 102 95 76
1.554088 -0.909135 3.598114 192 213 204
1.601028 -0.722559 3.598322 216 234 222
1.641273 0.809357 3.683669 74 92 96
1.595086 -0.928832 3.579317 109 111 97
1.269664 1.688394 2.817500 18 21 12
1.627685 -0.761033 3.589108 228 244 233
1.631882 -0.873367 3.583110 210 223 213
1.627685 -0.469693 3.572506 99 92 84
1.654205 -0.893854 3.579658 91 95 80
1.686590 -0.894417 3.558312 194 217 207
